<?xml version="1.0"?>
<svg xmlns="http://www.w3.org/2000/svg" xmlns:xlink="http://www.w3.org/1999/xlink" xmlns:svgjs="http://svgjs.com/svgjs" version="1.1" width="512" height="512" x="0" y="0" viewBox="0 0 480 480" style="enable-background:new 0 0 512 512" xml:space="preserve" class=""><g><path xmlns="http://www.w3.org/2000/svg" d="m144 391.800781c0-17.601562-14.398438-32-32-32-8.800781 0-16-7.199219-16-16s7.199219-16 16-16 16 7.199219 16 16c0 4.800781 3.199219 8 8 8s8-3.199219 8-8c0-14.402343-9.601562-27.199219-24-31.199219v-16.800781c0-4.800781-3.199219-8-8-8s-8 3.199219-8 8v16.800781c-16.800781 4.796876-27.199219 21.597657-23.199219 39.199219 4 14.398438 16 24 31.199219 24 8.800781 0 16 7.199219 16 16s-7.199219 16-16 16-16-7.199219-16-16c0-4.800781-3.199219-8-8-8s-8 3.199219-8 8c0 14.398438 9.601562 27.199219 24 31.199219v16.800781c0 4.800781 3.199219 8 8 8s8-3.199219 8-8v-16.800781c14.398438-4 24-16.800781 24-31.199219zm0 0" fill="#1e4183" data-original="#000000" style="" class=""/><path xmlns="http://www.w3.org/2000/svg" d="m112 255.800781c-61.601562 0-112 50.398438-112 112 0 61.597657 50.398438 112 112 112s112-50.402343 112-112c0-61.601562-50.398438-112-112-112zm0 208c-52.800781 0-96-43.199219-96-96s43.199219-96 96-96 96 43.199219 96 96-43.199219 96-96 96zm0 0" fill="#1e4183" data-original="#000000" style="" class=""/><path xmlns="http://www.w3.org/2000/svg" d="m83.199219 425.398438c-32-16-44.800781-54.398438-28.800781-85.597657 6.402343-12.800781 16.800781-22.402343 28.800781-28.800781 4-1.601562 5.601562-6.398438 4-11.199219-1.597657-4.800781-6.398438-5.601562-11.199219-4-39.199219 20-56 68-36 107.199219 8 16 20.800781 28 36 36 1.601562.800781 2.398438.800781 4 .800781 4.800781 0 8-4 8-8 0-3.199219-1.601562-5.601562-4.800781-6.402343zm0 0" fill="#1e4183" data-original="#000000" style="" class=""/><path xmlns="http://www.w3.org/2000/svg" d="m147.199219 295.800781c-4-2.402343-8.800781-.800781-11.199219 3.199219s-.800781 8.800781 3.199219 11.199219c0 0 .800781 0 .800781.800781 32 16 44.800781 54.398438 28.800781 85.601562-6.402343 12.796876-16.800781 22.398438-28.800781 28.796876-4 1.601562-6.398438 6.402343-4.800781 10.402343 1.601562 3.199219 4.800781 5.597657 8 4.800781 1.601562 0 2.402343 0 3.199219-.800781 39.203124-20 56-68 36-107.199219-6.398438-16-19.199219-28.800781-35.199219-36.800781zm0 0" fill="#1e4183" data-original="#000000" style="" class=""/><path xmlns="http://www.w3.org/2000/svg" d="m468 51.800781-80-46.402343c-12-7.199219-28-7.199219-40 0l-80.800781 46.402343c-11.199219 6.398438-15.199219 21.597657-8.800781 32.800781 5.601562 10.398438 18.402343 15.199219 29.601562 10.398438v104c0 4.800781 3.199219 8 8 8s8-3.199219 8-8v-112.800781l52-30.398438c7.199219-4 16.800781-4 24 0l52 30.398438v112.800781c0 4.800781 3.199219 8 8 8s8-3.199219 8-8v-104c2.398438.800781 5.601562 1.601562 8 1.601562 13.601562 0 24-10.402343 24-24 0-8.800781-4.800781-16.800781-12-20.800781zm-4.800781 24.800781c-.800781 1.597657-3.199219 3.199219-4.800781 4-2.398438.796876-4 0-6.398438-.800781l-64-37.601562c-6.398438-3.199219-12.800781-5.597657-20-5.597657s-13.601562 1.597657-20 5.597657l-64.800781 37.601562c-4 2.398438-8.800781 1.597657-11.199219-2.402343s-1.601562-8.796876 2.398438-11.199219h.800781l80-46.398438c7.199219-4 16.800781-4 24 0l80 46.398438c4.800781 1.601562 5.601562 6.402343 4 10.402343zm0 0" fill="#1e4183" data-original="#000000" style="" class=""/><path xmlns="http://www.w3.org/2000/svg" d="m392 207c4.800781 0 8-3.199219 8-8v-28.800781c.800781-1.597657.800781-3.199219 0-4.800781v-14.398438c0-13.601562-10.398438-24-24-24h-16c-13.601562 0-24 10.398438-24 24v48c0 4.800781 3.199219 8 8 8s8-3.199219 8-8v-48c0-4.800781 3.199219-8 8-8h16c4.800781 0 8 3.199219 8 8v8.800781h-8c-4.800781 0-8 3.199219-8 8s3.199219 8 8 8h8v23.199219c0 4 3.199219 8 8 8zm0 0" fill="#1e4183" data-original="#000000" style="" class=""/><path xmlns="http://www.w3.org/2000/svg" d="m408 103.800781c0-4.800781-3.199219-8-8-8h-64c-4.800781 0-8 3.199219-8 8s3.199219 8 8 8h64c4.800781 0 8-3.199219 8-8zm0 0" fill="#1e4183" data-original="#000000" style="" class=""/><path xmlns="http://www.w3.org/2000/svg" d="m373.601562 226.199219c-3.203124-3.199219-8-3.199219-11.203124 0l-64 64c-2.398438 2.402343-3.199219 5.601562-1.597657 8.800781 1.597657 3.199219 4 4.800781 7.199219 4.800781h24v32c0 4.800781-3.199219 8-8 8h-24c-4.800781 0-8 3.199219-8 8s3.199219 8 8 8h24c13.601562 0 24-10.402343 24-24v-40c0-4.800781-3.199219-8-8-8h-12.800781l44.800781-44.800781 44.800781 44.800781h-12.800781c-4.800781 0-8 3.199219-8 8v56c0 31.199219-24.800781 56-56 56h-64c-4.800781 0-8 3.199219-8 8s3.199219 8 8 8h64c40 0 72-32 72-72v-48h24c3.199219 0 6.398438-1.601562 7.199219-4.800781 1.601562-3.199219.800781-6.398438-1.597657-8.800781zm0 0" fill="#1e4183" data-original="#000000" style="" class=""/><path xmlns="http://www.w3.org/2000/svg" d="m376 351.800781v-40c0-4.800781-3.199219-8-8-8s-8 3.199219-8 8v40c0 13.597657-10.398438 24-24 24h-88c-4.800781 0-8 3.199219-8 8s3.199219 8 8 8h88c22.398438 0 40-17.601562 40-40zm0 0" fill="#1e4183" data-original="#000000" style="" class=""/><path xmlns="http://www.w3.org/2000/svg" d="m106.398438 229.398438c3.203124 3.203124 8 3.203124 11.203124 0l64-64c2.398438-2.398438 3.199219-5.597657 1.597657-8.796876-.800781-3.203124-4-4.800781-7.199219-4.800781h-24v-32c0-4.800781 3.199219-8 8-8h24c4.800781 0 8-3.199219 8-8s-3.199219-8-8-8h-24c-13.601562 0-24 10.398438-24 24v40c0 4.800781 3.199219 8 8 8h12.800781l-44.800781 44.800781-44.800781-44.800781h12.800781c4.800781 0 8-3.199219 8-8v-56c0-31.199219 24.800781-56 56-56h64c4.800781 0 8-3.199219 8-8s-3.199219-8-8-8h-64c-40 0-72 32-72 72v48h-24c-3.199219 0-6.398438 1.597657-7.199219 4.800781-1.601562 3.199219-.800781 6.398438 1.597657 8.796876zm0 0" fill="#1e4183" data-original="#000000" style="" class=""/><path xmlns="http://www.w3.org/2000/svg" d="m104 103.800781v40c0 4.800781 3.199219 8 8 8s8-3.199219 8-8v-40c0-13.601562 10.398438-24 24-24h88c4.800781 0 8-3.199219 8-8s-3.199219-8-8-8h-88c-22.398438 0-40 17.597657-40 40zm0 0" fill="#1e4183" data-original="#000000" style="" class=""/><path xmlns="http://www.w3.org/2000/svg" d="m248 287.800781v-16.800781c11.199219-3.199219 20-12 23.199219-23.199219h16.800781c4.800781 0 8-3.199219 8-8s-3.199219-8-8-8h-16.800781c-3.199219-11.199219-12-20-23.199219-23.199219v-16.800781c0-4.800781-3.199219-8-8-8s-8 3.199219-8 8v16.800781c-11.199219 3.199219-20 12-23.199219 23.199219h-16.800781c-4.800781 0-8 3.199219-8 8s3.199219 8 8 8h16.800781c3.199219 11.199219 12 20 23.199219 23.199219v16.800781c0 4.800781 3.199219 8 8 8s8-3.199219 8-8zm-24-48c0-8.800781 7.199219-16 16-16s16 7.199219 16 16-7.199219 16-16 16-16-7.199219-16-16zm0 0" fill="#1e4183" data-original="#000000" style="" class=""/></g></svg>
